Passive_04_3plates.mot
version=1
nRows=36
nColumns=19
inDegrees=yes
endheader
time	ground_force_vx	ground_force_vy	ground_force_vz	ground_force_px	ground_force_py	ground_force_pz	1_ground_force_vx	1_ground_force_vy	1_ground_force_vz	1_ground_force_px	1_ground_force_py	1_ground_force_pz	ground_torque_x	ground_torque_y	ground_torque_z	1_ground_torque_x	1_ground_torque_y	1_ground_torque_z	
0.53604	109.86	608.43	34.433	-0.31318	0	0.18807	11.025	214.3	2.3687	0.18761	0	0.3169	0	17.289	0	0	-1.4671	0
0.53646	110.12	607.37	34.452	-0.31319	0	0.18798	9.0178	217.05	2.1775	0.18745	0	0.31644	0	17.336	0	0	-1.9216	0
0.53688	110.34	605.87	34.363	-0.31301	0	0.18794	8.381	221.55	2.4117	0.19063	0	0.31618	0	17.393	0	0	-2.3236	0
0.53729	110.54	605.6	34.342	-0.31307	0	0.18809	8.2392	226.66	3.1612	0.19135	0	0.31617	0	17.375	0	0	-2.4477	0
0.53771	110.71	604.1	34.274	-0.31273	0	0.18805	8.5648	231.42	3.4015	0.1922	0	0.31599	0	17.418	0	0	-2.3067	0
0.53813	110.9	603.22	34.229	-0.3127	0	0.1881	7.9964	236.51	3.7519	0.19075	0	0.3159	0	17.462	0	0	-2.1026	0
0.53854	111.1	601.27	34.077	-0.31253	0	0.18808	6.653	241.26	4.0045	0.18995	0	0.31542	0	17.474	0	0	-1.9756	0
0.53896	111.18	600.03	34.033	-0.31258	0	0.18799	4.5042	245.74	4.3919	0.18962	0	0.31563	0	17.496	0	0	-2.1619	0
0.53938	111.44	599.5	33.881	-0.31243	0	0.18812	2.7174	250.05	4.3791	0.19049	0	0.31526	0	17.474	0	0	-2.421	0
0.53979	111.35	598.97	33.771	-0.31252	0	0.18817	1.4133	253.41	4.2122	0.1911	0	0.31522	0	17.53	0	0	-2.6806	0
0.54021	111.68	598.18	33.813	-0.31242	0	0.18821	1.02	256.78	4.1463	0.1929	0	0.31514	0	17.552	0	0	-2.8014	0
0.54063	111.85	596.24	33.923	-0.3122	0	0.18822	0.8461	260.24	4.0425	0.194	0	0.31505	0	17.547	0	0	-2.6748	0
0.54104	112.05	596.05	33.791	-0.31232	0	0.18846	-0.29202	264.64	4.2053	0.19387	0	0.31462	0	17.604	0	0	-2.503	0
0.54146	112.42	594.81	33.747	-0.31225	0	0.18849	-1.8101	269.73	4.5276	0.19197	0	0.31491	0	17.608	0	0	-2.5473	0
0.54188	112.55	592.79	33.81	-0.31197	0	0.1882	-3.9568	275.07	5.6342	0.19151	0	0.3147	0	17.651	0	0	-2.8049	0
0.54229	112.87	590.58	33.547	-0.31166	0	0.18796	-5.6679	279.56	6.1462	0.19051	0	0.31437	0	17.663	0	0	-3.2718	0
0.54271	112.76	589.52	33.568	-0.31155	0	0.18826	-6.1428	283.72	6.9181	0.19073	0	0.31439	0	17.729	0	0	-3.6271	0
0.54313	112.84	589.07	33.506	-0.3118	0	0.18832	-6.6507	288.22	7.4588	0.19301	0	0.3137	0	17.702	0	0	-3.8106	0
0.54354	113.08	587.4	33.396	-0.31162	0	0.18837	-7.0458	291.24	7.5919	0.19477	0	0.31364	0	17.724	0	0	-3.7689	0
0.54396	113.36	585.46	33.265	-0.31132	0	0.18831	-8.3818	294.52	7.6358	0.1963	0	0.3134	0	17.732	0	0	-3.6478	0
0.54438	113.56	584.57	33.093	-0.31121	0	0.18847	-10.874	297.78	8.0542	0.1954	0	0.31346	0	17.693	0	0	-3.7199	0
0.5448	113.58	582.63	33.221	-0.31097	0	0.18822	-13.643	301.48	8.4537	0.19427	0	0.31313	0	17.74	0	0	-3.8828	0
0.54521	113.62	581.75	33.18	-0.31113	0	0.18843	-15.999	305.09	8.8312	0.19185	0	0.31286	0	17.744	0	0	-4.1524	0
0.54563	113.88	580.68	32.876	-0.31123	0	0.18865	-16.709	310.2	9.5274	0.19275	0	0.3126	0	17.766	0	0	-4.443	0
0.54605	113.96	578.48	33.051	-0.31086	0	0.18835	-17.034	314.52	9.9465	0.19255	0	0.31262	0	17.734	0	0	-4.578	0
0.54646	114.05	577.33	33.139	-0.31077	0	0.18846	-16.679	318.16	10.542	0.19356	0	0.3123	0	17.747	0	0	-4.5139	0
0.54688	113.85	575.83	32.707	-0.31074	0	0.18864	-17.46	321.62	10.994	0.19361	0	0.31217	0	17.734	0	0	-4.6078	0
0.5473	113.96	574.59	32.554	-0.31087	0	0.18854	-19.499	326.62	11.065	0.19663	0	0.31186	0	17.764	0	0	-4.7411	0
0.54771	114.04	573.45	32.534	-0.31064	0	0.18872	-22.326	330.49	11.559	0.19787	0	0.31196	0	17.729	0	0	-4.9788	0
0.54813	114.04	570.72	32.536	-0.31028	0	0.18854	-24.951	334.02	11.946	0.19904	0	0.31158	0	17.715	0	0	-5.2443	0
0.54855	114.17	569.74	32.517	-0.31037	0	0.18869	-26.281	336.69	12.343	0.19776	0	0.31125	0	17.693	0	0	-5.3684	0
0.54896	114.21	568.07	32.432	-0.31034	0	0.18886	-26.769	339.54	12.853	0.19575	0	0.31144	0	17.688	0	0	-5.2967	0
0.54938	114.41	566.21	32.388	-0.31004	0	0.18871	-26.523	342.66	13.501	0.19426	0	0.31141	0	17.692	0	0	-5.3864	0
0.5498	114.38	564.36	32.236	-0.3098	0	0.18865	-26.739	346.9	14.006	0.19454	0	0.31119	0	17.7	0	0	-5.3764	0
0.55021	114.27	562.25	32.412	-0.30963	0	0.18857	-27.886	352.16	14.38	0.19622	0	0.31123	0	17.7	0	0	-5.5138	0
0.55063	114.38	561.19	32.089	-0.30968	0	0.18885	-29.643	355.88	14.743	0.19699	0	0.31075	0	17.673	0	0	-5.9211	0
